<svg width="1920" height="459" viewBox="0 0 1920 459" fill="none" xmlns="http://www.w3.org/2000/svg">
<path d="M-79 229.5C200.2 -72.5 270 -72.5 130.4 229.5C-9.19999 531.5 60.6 531.5 339.8 229.5C619 -72.5 688.8 -72.5 549.2 229.5C409.6 531.5 479.4 531.5 758.6 229.5C1037.8 -72.5 1107.6 -72.5 968 229.5C828.4 531.5 898.2 531.5 1177.4 229.5C1456.6 -72.5 1526.4 -72.5 1386.8 229.5C1247.2 531.5 1317 531.5 1596.2 229.5C1875.4 -72.5 1945.2 -72.5 1805.6 229.5C1666 531.5 1735.8 531.5 2015 229.5" stroke="white" stroke-width="5"/>
</svg>
