<svg width="752" height="753" viewBox="0 0 752 753" fill="none" xmlns="http://www.w3.org/2000/svg">
<g filter="url(#filter0_d_178_117)">
<g filter="url(#filter1_d_178_117)">
<rect x="31" y="24" width="690" height="690" rx="133.714" fill="#FFFEFE"/>
</g>
<g filter="url(#filter2_i_178_117)">
<rect x="67.9648" y="60.9658" width="609.911" height="609.911" rx="118.194" fill="#88D557"/>
</g>
<g filter="url(#filter3_f_178_117)">
<ellipse cx="420.794" cy="533.713" rx="70.2514" ry="124.285" transform="rotate(75 420.794 533.713)" fill="black" fill-opacity="0.25"/>
</g>
<g clip-path="url(#clip0_178_117)">
<path d="M546.235 404.724L449.527 437.858V479.797L546.235 518.466V404.724Z" fill="#1A6CA2"/>
<path d="M244.254 542.003C232 542.003 222.045 532.049 222.045 519.794V338.777C222.045 326.522 232 316.567 244.254 316.567H462.036C474.29 316.567 484.245 326.522 484.245 338.777V519.794C484.245 532.049 474.29 542.003 462.036 542.003H244.254Z" fill="#40C0E7"/>
<path d="M451.793 671.63C458.01 671.63 463.077 676.698 463.077 682.915V851.426C463.077 857.643 458.01 862.71 451.793 862.71H249.034C242.816 862.71 237.749 857.643 237.749 851.426V682.915C237.749 676.698 242.816 671.63 249.034 671.63H451.793ZM451.793 652.835H249.034C232.43 652.835 218.954 666.312 218.954 682.915V851.426C218.954 868.029 232.43 881.505 249.034 881.505H451.757C468.36 881.505 481.837 868.029 481.837 851.426V682.915C481.873 666.312 468.396 652.835 451.793 652.835ZM560.288 394.444C568.338 394.444 574.879 400.985 574.879 409.035V514.152C574.879 522.202 568.338 528.743 560.288 528.743C552.238 528.743 545.698 522.202 545.698 514.152V409.035C545.698 400.985 552.238 394.444 560.288 394.444ZM433.249 557.672H273.04C269.475 557.672 266.056 556.256 263.536 553.736C261.015 551.215 259.599 547.797 259.599 544.232C259.599 540.667 261.015 537.248 263.536 534.728C266.056 532.207 269.475 530.791 273.04 530.791H433.285C436.85 530.791 440.269 532.207 442.789 534.728C445.31 537.248 446.726 540.667 446.726 544.232C446.716 547.8 445.292 551.218 442.766 553.738C440.24 556.258 436.817 557.672 433.249 557.672ZM219.601 365.515H353.54C368.418 365.515 380.457 377.554 380.457 392.432V463.013C380.457 477.891 368.418 489.93 353.54 489.93H219.601C204.723 489.93 192.684 477.891 192.684 463.013V392.432C192.684 377.554 204.723 365.515 219.601 365.515Z" fill="#1A6CA2"/>
<path d="M428.972 390.959H461.172C473.894 390.959 484.244 400.411 484.244 412.09V520.909C484.244 532.589 473.93 542.04 461.172 542.04H428.972C416.25 542.04 405.9 532.589 405.9 520.909V412.09C405.9 400.411 416.214 390.959 428.972 390.959Z" fill="#1A6CA2"/>
<path d="M444.499 511.601C450.771 511.601 455.855 506.517 455.855 500.245C455.855 493.973 450.771 488.889 444.499 488.889C438.227 488.889 433.143 493.973 433.143 500.245C433.143 506.517 438.227 511.601 444.499 511.601Z" fill="#ED6C30"/>
<path d="M444.499 473.937C450.771 473.937 455.855 468.853 455.855 462.581C455.855 456.309 450.771 451.225 444.499 451.225C438.227 451.225 433.143 456.309 433.143 462.581C433.143 468.853 438.227 473.937 444.499 473.937Z" fill="#40C0E7"/>
<path d="M482.016 152.01C418.514 152.01 367.016 203.508 367.016 267.01C367.016 330.511 418.514 382.01 482.016 382.01C545.517 382.01 597.016 330.511 597.016 267.01C597.016 203.508 545.517 152.01 482.016 152.01ZM482.016 354.733C433.536 354.733 394.256 315.454 394.256 266.974C394.256 218.494 433.572 179.25 482.016 179.25C530.459 179.25 569.775 218.53 569.775 267.01C569.775 315.489 530.495 354.733 482.016 354.733Z" fill="#1A6CA2"/>
<path d="M482.015 354.735C530.483 354.735 569.775 315.443 569.775 266.975C569.775 218.507 530.483 179.216 482.015 179.216C433.547 179.216 394.256 218.507 394.256 266.975C394.256 315.443 433.547 354.735 482.015 354.735Z" fill="white"/>
<path d="M482.016 227.3C460.094 227.3 442.305 245.089 442.305 267.011C442.305 288.933 460.094 306.686 482.016 306.686C503.938 306.686 521.727 288.897 521.727 266.975C521.727 245.053 503.938 227.3 482.016 227.3ZM482.016 284.728C472.241 284.728 464.298 276.786 464.298 267.011C464.298 257.236 472.241 249.294 482.016 249.294C491.791 249.294 499.733 257.236 499.733 267.011C499.733 276.786 491.827 284.728 482.016 284.728Z" fill="#1A6CA2"/>
<path d="M482.016 284.689C491.801 284.689 499.733 276.757 499.733 266.972C499.733 257.187 491.801 249.255 482.016 249.255C472.231 249.255 464.299 257.187 464.299 266.972C464.299 276.757 472.231 284.689 482.016 284.689Z" fill="white"/>
<path d="M464.299 167.21L475.44 238.115H489.635L499.77 167.21H464.299ZM571.249 219.068L507.424 251.951L511.88 265.391L582.39 252.741L571.249 219.068ZM555.113 337.41L504.19 286.774L492.762 295.183L526.507 358.362L555.113 337.41ZM437.454 358.397L470.013 294.429L458.549 286.127L408.74 337.59L437.454 358.397ZM381.355 253.101L452.26 264.313L456.609 250.837L392.28 219.355L381.355 253.101ZM239.977 213.749C188.659 213.749 147.043 255.365 147.043 306.683C147.043 358.002 188.659 399.618 239.977 399.618C291.296 399.618 332.912 358.002 332.912 306.683C332.912 255.365 291.332 213.749 239.977 213.749ZM239.977 377.624C200.805 377.624 169.037 345.855 169.037 306.683C169.037 267.512 200.805 235.743 239.977 235.743C279.149 235.743 310.918 267.512 310.918 306.683C310.918 345.855 279.149 377.624 239.977 377.624Z" fill="#1A6CA2"/>
<path d="M239.978 377.624C279.157 377.624 310.918 345.863 310.918 306.684C310.918 267.504 279.157 235.743 239.978 235.743C200.798 235.743 169.037 267.504 169.037 306.684C169.037 345.863 200.798 377.624 239.978 377.624Z" fill="white"/>
<path d="M239.975 274.594C222.258 274.594 207.883 288.969 207.883 306.686C207.883 324.403 222.258 338.778 239.975 338.778C257.692 338.778 272.067 324.403 272.067 306.686C272.067 288.969 257.728 274.594 239.975 274.594ZM239.975 321.025C232.069 321.025 225.636 314.592 225.636 306.686C225.636 298.78 232.069 292.347 239.975 292.347C247.881 292.347 254.314 298.78 254.314 306.686C254.314 314.592 247.917 321.025 239.975 321.025Z" fill="#1A6CA2"/>
<path d="M239.978 321.023C247.897 321.023 254.317 314.603 254.317 306.684C254.317 298.765 247.897 292.345 239.978 292.345C232.058 292.345 225.639 298.765 225.639 306.684C225.639 314.603 232.058 321.023 239.978 321.023Z" fill="white"/>
<path d="M225.673 226.04L234.657 283.36H246.121L254.315 226.04H225.673ZM312.102 267.943L260.496 294.537L264.126 305.39L321.087 295.184L312.102 267.943ZM299.057 363.609L257.909 322.676L248.673 329.468L275.949 380.535L299.057 363.609ZM203.966 380.571L230.273 328.857L221.001 322.137L180.751 363.753L203.966 380.571ZM158.613 295.471L215.934 304.528L219.455 293.638L167.454 268.195L158.613 295.471Z" fill="#1A6CA2"/>
</g>
</g>
<defs>
<filter id="filter0_d_178_117" x="27" y="24" width="698" height="698" filterUnits="userSpaceOnUse" color-interpolation-filters="sRGB">
<feFlood flood-opacity="0" result="BackgroundImageFix"/>
<feColorMatrix in="SourceAlpha" type="matrix" values="0 0 0 0 0 0 0 0 0 0 0 0 0 0 0 0 0 0 127 0" result="hardAlpha"/>
<feOffset dy="4"/>
<feGaussianBlur stdDeviation="2"/>
<feComposite in2="hardAlpha" operator="out"/>
<feColorMatrix type="matrix" values="0 0 0 0 0 0 0 0 0 0 0 0 0 0 0 0 0 0 0.25 0"/>
<feBlend mode="normal" in2="BackgroundImageFix" result="effect1_dropShadow_178_117"/>
<feBlend mode="normal" in="SourceGraphic" in2="effect1_dropShadow_178_117" result="shape"/>
</filter>
<filter id="filter1_d_178_117" x="0.177258" y="0.882943" width="751.645" height="751.645" filterUnits="userSpaceOnUse" color-interpolation-filters="sRGB">
<feFlood flood-opacity="0" result="BackgroundImageFix"/>
<feColorMatrix in="SourceAlpha" type="matrix" values="0 0 0 0 0 0 0 0 0 0 0 0 0 0 0 0 0 0 127 0" result="hardAlpha"/>
<feOffset dy="7.70569"/>
<feGaussianBlur stdDeviation="15.4114"/>
<feComposite in2="hardAlpha" operator="out"/>
<feColorMatrix type="matrix" values="0 0 0 0 0.666667 0 0 0 0 0.666667 0 0 0 0 0.666667 0 0 0 0.25 0"/>
<feBlend mode="normal" in2="BackgroundImageFix" result="effect1_dropShadow_178_117"/>
<feBlend mode="normal" in="SourceGraphic" in2="effect1_dropShadow_178_117" result="shape"/>
</filter>
<filter id="filter2_i_178_117" x="67.9648" y="60.9658" width="609.91" height="615.911" filterUnits="userSpaceOnUse" color-interpolation-filters="sRGB">
<feFlood flood-opacity="0" result="BackgroundImageFix"/>
<feBlend mode="normal" in="SourceGraphic" in2="BackgroundImageFix" result="shape"/>
<feColorMatrix in="SourceAlpha" type="matrix" values="0 0 0 0 0 0 0 0 0 0 0 0 0 0 0 0 0 0 127 0" result="hardAlpha"/>
<feOffset dy="6"/>
<feGaussianBlur stdDeviation="9"/>
<feComposite in2="hardAlpha" operator="arithmetic" k2="-1" k3="1"/>
<feColorMatrix type="matrix" values="0 0 0 0 0.447059 0 0 0 0 0.737255 0 0 0 0 0.32549 0 0 0 1 0"/>
<feBlend mode="normal" in2="shape" result="effect1_innerShadow_178_117"/>
</filter>
<filter id="filter3_f_178_117" x="249.357" y="408.599" width="342.873" height="250.228" filterUnits="userSpaceOnUse" color-interpolation-filters="sRGB">
<feFlood flood-opacity="0" result="BackgroundImageFix"/>
<feBlend mode="normal" in="SourceGraphic" in2="BackgroundImageFix" result="shape"/>
<feGaussianBlur stdDeviation="25" result="effect1_foregroundBlur_178_117"/>
</filter>
<clipPath id="clip0_178_117">
<rect width="460" height="460" fill="white" transform="translate(142.406 122.828)"/>
</clipPath>
</defs>
</svg>
