<svg width="752" height="753" viewBox="0 0 752 753" fill="none" xmlns="http://www.w3.org/2000/svg">
<g filter="url(#filter0_d_387_60)">
<rect x="31" y="24" width="690" height="690" rx="133.714" fill="#FFFEFE"/>
</g>
<rect x="67.9648" y="60.9658" width="609.911" height="609.911" rx="118.194" fill="#88D557"/>
<g filter="url(#filter1_f_387_60)">
<ellipse cx="440.56" cy="521.134" rx="70.2514" ry="124.285" transform="rotate(75 440.56 521.134)" fill="black" fill-opacity="0.25"/>
</g>
<g clip-path="url(#clip0_387_60)">
<path d="M549.829 420.896L453.121 454.03V495.969L549.829 534.638V420.896Z" fill="#1A6CA2"/>
<path d="M247.848 558.175C235.593 558.175 225.639 548.22 225.639 535.966V354.949C225.639 342.694 235.593 332.739 247.848 332.739H465.629C477.884 332.739 487.839 342.694 487.839 354.949V535.966C487.839 548.22 477.884 558.175 465.629 558.175H247.848V558.175Z" fill="#40C0E7"/>
<path d="M455.387 687.802C461.604 687.802 466.671 692.869 466.671 699.087V867.598C466.671 873.815 461.604 878.882 455.387 878.882H252.627C246.41 878.882 241.343 873.815 241.343 867.598V699.087C241.343 692.869 246.41 687.802 252.627 687.802H455.387V687.802ZM455.387 669.007H252.627C236.024 669.007 222.548 682.483 222.548 699.087V867.598C222.548 884.201 236.024 897.677 252.627 897.677H455.351C471.954 897.677 485.43 884.201 485.43 867.598V699.087C485.466 682.483 471.99 669.007 455.387 669.007V669.007ZM563.882 410.616C571.932 410.616 578.473 417.157 578.473 425.207V530.324C578.473 538.374 571.932 544.915 563.882 544.915C555.832 544.915 549.291 538.374 549.291 530.324V425.207C549.291 417.157 555.832 410.616 563.882 410.616V410.616ZM436.843 573.844H276.634C273.069 573.844 269.65 572.428 267.13 569.908C264.609 567.387 263.193 563.968 263.193 560.404C263.193 556.839 264.609 553.42 267.13 550.9C269.65 548.379 273.069 546.963 276.634 546.963H436.879C440.444 546.963 443.862 548.379 446.383 550.9C448.903 553.42 450.32 556.839 450.32 560.404C450.31 563.972 448.886 567.39 446.36 569.91C443.833 572.429 440.411 573.844 436.843 573.844V573.844ZM223.195 381.687H357.134C372.012 381.687 384.051 393.726 384.051 408.604V479.185C384.051 494.063 372.012 506.102 357.134 506.102H223.195C208.316 506.102 196.277 494.063 196.277 479.185V408.604C196.277 393.726 208.316 381.687 223.195 381.687Z" fill="#1A6CA2"/>
<path d="M432.566 407.131H464.766C477.488 407.131 487.838 416.582 487.838 428.262V537.081C487.838 548.761 477.524 558.212 464.766 558.212H432.566C419.844 558.212 409.494 548.761 409.494 537.081V428.262C409.494 416.582 419.808 407.131 432.566 407.131V407.131Z" fill="#1A6CA2"/>
<path d="M448.093 527.773C454.364 527.773 459.449 522.689 459.449 516.417C459.449 510.145 454.364 505.061 448.093 505.061C441.821 505.061 436.736 510.145 436.736 516.417C436.736 522.689 441.821 527.773 448.093 527.773Z" fill="#ED6C30"/>
<path d="M448.093 490.109C454.364 490.109 459.449 485.025 459.449 478.753C459.449 472.481 454.364 467.396 448.093 467.396C441.821 467.396 436.736 472.481 436.736 478.753C436.736 485.025 441.821 490.109 448.093 490.109Z" fill="#40C0E7"/>
<path d="M485.609 168.182C422.108 168.182 370.609 219.68 370.609 283.182C370.609 346.683 422.108 398.182 485.609 398.182C549.111 398.182 600.609 346.683 600.609 283.182C600.609 219.68 549.111 168.182 485.609 168.182V168.182ZM485.609 370.905C437.13 370.905 397.85 331.625 397.85 283.146C397.85 234.666 437.166 195.422 485.609 195.422C534.053 195.422 573.369 234.702 573.369 283.182C573.369 331.661 534.089 370.905 485.609 370.905Z" fill="#1A6CA2"/>
<path d="M485.609 370.906C534.077 370.906 573.368 331.615 573.368 283.147C573.368 234.679 534.077 195.388 485.609 195.388C437.141 195.388 397.85 234.679 397.85 283.147C397.85 331.615 437.141 370.906 485.609 370.906Z" fill="white"/>
<path d="M485.609 243.472C463.688 243.472 445.898 261.261 445.898 283.183C445.898 305.104 463.688 322.858 485.609 322.858C507.531 322.858 525.32 305.069 525.32 283.147C525.32 261.225 507.531 243.472 485.609 243.472ZM485.609 300.9C475.834 300.9 467.892 292.958 467.892 283.183C467.892 273.408 475.834 265.465 485.609 265.465C495.384 265.465 503.327 273.408 503.327 283.183C503.327 292.958 495.42 300.9 485.609 300.9Z" fill="#1A6CA2"/>
<path d="M485.61 300.861C495.395 300.861 503.327 292.929 503.327 283.144C503.327 273.359 495.395 265.427 485.61 265.427C475.825 265.427 467.893 273.359 467.893 283.144C467.893 292.929 475.825 300.861 485.61 300.861Z" fill="white"/>
<path d="M467.893 183.382L479.034 254.287H493.229L503.363 183.382H467.893ZM574.843 235.24L511.018 268.122L515.474 281.563L585.984 268.913L574.843 235.24ZM558.707 353.582L507.784 302.946L496.355 311.355L530.101 374.533L558.707 353.582ZM441.048 374.569L473.607 310.601L462.143 302.299L412.334 353.762L441.048 374.569ZM384.949 269.272L455.854 280.485L460.202 267.008L395.874 235.527L384.949 269.272ZM243.571 229.921C192.252 229.921 150.637 271.537 150.637 322.855C150.637 374.174 192.252 415.79 243.571 415.79C294.89 415.79 336.505 374.174 336.505 322.855C336.505 271.537 294.926 229.921 243.571 229.921ZM243.571 393.796C204.399 393.796 172.63 362.027 172.63 322.855C172.63 283.683 204.399 251.915 243.571 251.915C282.743 251.915 314.512 283.683 314.512 322.855C314.512 362.027 282.743 393.796 243.571 393.796Z" fill="#1A6CA2"/>
<path d="M243.571 393.796C282.751 393.796 314.512 362.035 314.512 322.856C314.512 283.676 282.751 251.915 243.571 251.915C204.392 251.915 172.631 283.676 172.631 322.856C172.631 362.035 204.392 393.796 243.571 393.796Z" fill="white"/>
<path d="M243.569 290.766C225.852 290.766 211.477 305.141 211.477 322.858C211.477 340.575 225.852 354.95 243.569 354.95C261.286 354.95 275.661 340.575 275.661 322.858C275.661 305.141 261.322 290.766 243.569 290.766ZM243.569 337.197C235.663 337.197 229.23 330.764 229.23 322.858C229.23 314.952 235.663 308.519 243.569 308.519C251.475 308.519 257.908 314.952 257.908 322.858C257.908 330.764 251.511 337.197 243.569 337.197Z" fill="#1A6CA2"/>
<path d="M243.571 337.195C251.491 337.195 257.911 330.775 257.911 322.856C257.911 314.936 251.491 308.517 243.571 308.517C235.652 308.517 229.232 314.936 229.232 322.856C229.232 330.775 235.652 337.195 243.571 337.195Z" fill="white"/>
<path d="M229.266 242.212L238.251 299.532H249.715L257.909 242.212H229.266ZM315.696 284.115L264.09 310.709L267.72 321.562L324.68 311.356L315.696 284.115ZM302.651 379.781L261.502 338.848L252.266 345.64L279.543 396.707L302.651 379.781ZM207.56 396.743L233.866 345.029L224.595 338.309L184.345 379.924L207.56 396.743ZM162.207 311.643L219.527 320.699L223.049 309.81L171.048 284.367L162.207 311.643Z" fill="#1A6CA2"/>
</g>
<defs>
<filter id="filter0_d_387_60" x="0.177256" y="0.882942" width="751.645" height="751.645" filterUnits="userSpaceOnUse" color-interpolation-filters="sRGB">
<feFlood flood-opacity="0" result="BackgroundImageFix"/>
<feColorMatrix in="SourceAlpha" type="matrix" values="0 0 0 0 0 0 0 0 0 0 0 0 0 0 0 0 0 0 127 0" result="hardAlpha"/>
<feOffset dy="7.70569"/>
<feGaussianBlur stdDeviation="15.4114"/>
<feComposite in2="hardAlpha" operator="out"/>
<feColorMatrix type="matrix" values="0 0 0 0 0.666667 0 0 0 0 0.666667 0 0 0 0 0.666667 0 0 0 0.25 0"/>
<feBlend mode="normal" in2="BackgroundImageFix" result="effect1_dropShadow_387_60"/>
<feBlend mode="normal" in="SourceGraphic" in2="effect1_dropShadow_387_60" result="shape"/>
</filter>
<filter id="filter1_f_387_60" x="269.123" y="396.021" width="342.873" height="250.228" filterUnits="userSpaceOnUse" color-interpolation-filters="sRGB">
<feFlood flood-opacity="0" result="BackgroundImageFix"/>
<feBlend mode="normal" in="SourceGraphic" in2="BackgroundImageFix" result="shape"/>
<feGaussianBlur stdDeviation="25" result="effect1_foregroundBlur_387_60"/>
</filter>
<clipPath id="clip0_387_60">
<rect width="460" height="460" fill="white" transform="translate(146 139)"/>
</clipPath>
</defs>
</svg>
