<svg width="22" height="19" viewBox="0 0 22 19" fill="none" xmlns="http://www.w3.org/2000/svg">
<path fill-rule="evenodd" clip-rule="evenodd" d="M21.7128 9.5C21.7128 9.85987 21.5698 10.205 21.3154 10.4595C21.0609 10.7139 20.7158 10.8569 20.3559 10.8569H4.63488L10.4614 16.6807C10.5876 16.8069 10.6876 16.9566 10.7559 17.1215C10.8242 17.2863 10.8593 17.463 10.8593 17.6414C10.8593 17.8198 10.8242 17.9965 10.7559 18.1613C10.6876 18.3261 10.5876 18.4759 10.4614 18.6021C10.3352 18.7282 10.1855 18.8283 10.0206 18.8966C9.8558 18.9649 9.67913 19 9.50071 19C9.3223 19 9.14563 18.9649 8.98079 18.8966C8.81596 18.8283 8.66619 18.7282 8.54003 18.6021L0.39864 10.4607C0.272277 10.3346 0.172021 10.1849 0.103616 10.0201C0.0352105 9.8552 0 9.67848 0 9.5C0 9.32152 0.0352105 9.1448 0.103616 8.97995C0.172021 8.8151 0.272277 8.66536 0.39864 8.53932L8.54003 0.397929C8.79482 0.143139 9.14039 0 9.50071 0C9.86104 0 10.2066 0.143139 10.4614 0.397929C10.7162 0.652718 10.8593 0.998286 10.8593 1.35861C10.8593 1.71894 10.7162 2.06451 10.4614 2.3193L4.63488 8.1431H20.3559C20.7158 8.1431 21.0609 8.28606 21.3154 8.54053C21.5698 8.795 21.7128 9.14013 21.7128 9.5Z" fill="white"/>
</svg>
