<svg width="40" height="35" viewBox="0 0 40 35" fill="none" xmlns="http://www.w3.org/2000/svg">
<path fill-rule="evenodd" clip-rule="evenodd" d="M39.9972 17.5C39.9972 18.1629 39.7339 18.7987 39.2652 19.2675C38.7964 19.7362 38.1606 19.9995 37.4977 19.9995H8.53793L19.271 30.7276C19.5034 30.96 19.6877 31.2359 19.8135 31.5395C19.9393 31.8432 20.004 32.1686 20.004 32.4973C20.004 32.826 19.9393 33.1514 19.8135 33.455C19.6877 33.7587 19.5034 34.0346 19.271 34.267C19.0386 34.4994 18.7627 34.6837 18.4591 34.8095C18.1554 34.9353 17.83 35 17.5013 35C17.1727 35 16.8472 34.9353 16.5436 34.8095C16.2399 34.6837 15.964 34.4994 15.7316 34.267L0.734336 19.2697C0.501562 19.0375 0.31688 18.7617 0.190871 18.458C0.0648614 18.1543 0 17.8288 0 17.5C0 17.1712 0.0648614 16.8457 0.190871 16.542C0.31688 16.2383 0.501562 15.9625 0.734336 15.7303L15.7316 0.733026C16.201 0.263678 16.8376 0 17.5013 0C18.1651 0 18.8016 0.263678 19.271 0.733026C19.7403 1.20237 20.004 1.83895 20.004 2.50271C20.004 3.16647 19.7403 3.80304 19.271 4.27239L8.53793 15.0005H37.4977C38.1606 15.0005 38.7964 15.2638 39.2652 15.7326C39.7339 16.2013 39.9972 16.8371 39.9972 17.5Z" fill="#6E057C"/>
</svg>
