<svg width="256" height="256" viewBox="0 0 256 256" fill="none" xmlns="http://www.w3.org/2000/svg">
<g clip-path="url(#clip0_60_67)">
<path d="M224.74 156.881L170.92 175.321V198.661L224.74 220.181V156.881Z" fill="#1A6CA2"/>
<path d="M56.6803 233.28C49.8603 233.28 44.3203 227.74 44.3203 220.92V120.18C44.3203 113.36 49.8603 107.82 56.6803 107.82H177.88C184.7 107.82 190.24 113.36 190.24 120.18V220.92C190.24 227.74 184.7 233.28 177.88 233.28H56.6803Z" fill="#40C0E7"/>
<path d="M172.18 305.421C175.64 305.421 178.46 308.241 178.46 311.701V405.481C178.46 408.941 175.64 411.761 172.18 411.761H59.3405C55.8805 411.761 53.0605 408.941 53.0605 405.481V311.701C53.0605 308.241 55.8805 305.421 59.3405 305.421H172.18ZM172.18 294.961H59.3405C50.1005 294.961 42.6005 302.461 42.6005 311.701V405.481C42.6005 414.721 50.1005 422.221 59.3405 422.221H172.16C181.4 422.221 188.9 414.721 188.9 405.481V311.701C188.92 302.461 181.42 294.961 172.18 294.961ZM232.56 151.161C237.04 151.161 240.68 154.801 240.68 159.281V217.781C240.68 222.261 237.04 225.901 232.56 225.901C228.08 225.901 224.44 222.261 224.44 217.781V159.281C224.44 154.801 228.08 151.161 232.56 151.161ZM161.86 242.001H72.7005C70.7166 242.001 68.8141 241.212 67.4113 239.81C66.0085 238.407 65.2205 236.504 65.2205 234.521C65.2205 232.537 66.0085 230.634 67.4113 229.231C68.8141 227.829 70.7166 227.041 72.7005 227.041H161.88C163.864 227.041 165.767 227.829 167.17 229.231C168.572 230.634 169.36 232.537 169.36 234.521C169.355 236.506 168.563 238.409 167.157 239.811C165.751 241.213 163.846 242.001 161.86 242.001ZM42.9605 135.061H117.5C125.78 135.061 132.48 141.761 132.48 150.041V189.321C132.48 197.601 125.78 204.301 117.5 204.301H42.9605C34.6805 204.301 27.9805 197.601 27.9805 189.321V150.041C27.9805 141.761 34.6805 135.061 42.9605 135.061Z" fill="#1A6CA2"/>
<path d="M159.481 149.221H177.401C184.481 149.221 190.241 154.481 190.241 160.981V221.541C190.241 228.041 184.501 233.301 177.401 233.301H159.481C152.401 233.301 146.641 228.041 146.641 221.541V160.981C146.641 154.481 152.381 149.221 159.481 149.221Z" fill="#1A6CA2"/>
<path d="M168.121 216.361C171.611 216.361 174.441 213.531 174.441 210.041C174.441 206.55 171.611 203.721 168.121 203.721C164.63 203.721 161.801 206.55 161.801 210.041C161.801 213.531 164.63 216.361 168.121 216.361Z" fill="#ED6C30"/>
<path d="M168.121 195.4C171.611 195.4 174.441 192.57 174.441 189.08C174.441 185.589 171.611 182.76 168.121 182.76C164.63 182.76 161.801 185.589 161.801 189.08C161.801 192.57 164.63 195.4 168.121 195.4Z" fill="#40C0E7"/>
<path d="M189 16.2402C153.66 16.2402 125 44.9002 125 80.2402C125 115.58 153.66 144.24 189 144.24C224.34 144.24 253 115.58 253 80.2402C253 44.9002 224.34 16.2402 189 16.2402ZM189 129.06C162.02 129.06 140.16 107.2 140.16 80.2202C140.16 53.2402 162.04 31.4002 189 31.4002C215.96 31.4002 237.84 53.2602 237.84 80.2402C237.84 107.22 215.98 129.06 189 129.06Z" fill="#1A6CA2"/>
<path d="M189 129.061C215.974 129.061 237.84 107.194 237.84 80.2209C237.84 53.2473 215.974 31.3809 189 31.3809C162.027 31.3809 140.16 53.2473 140.16 80.2209C140.16 107.194 162.027 129.061 189 129.061Z" fill="white"/>
<path d="M189 58.1406C176.8 58.1406 166.9 68.0406 166.9 80.2406C166.9 92.4406 176.8 102.321 189 102.321C201.2 102.321 211.1 92.4206 211.1 80.2206C211.1 68.0206 201.2 58.1406 189 58.1406ZM189 90.1006C183.56 90.1006 179.14 85.6806 179.14 80.2406C179.14 74.8006 183.56 70.3806 189 70.3806C194.44 70.3806 198.86 74.8006 198.86 80.2406C198.86 85.6806 194.46 90.1006 189 90.1006Z" fill="#1A6CA2"/>
<path d="M189.001 90.0794C194.446 90.0794 198.861 85.6649 198.861 80.2194C198.861 74.7738 194.446 70.3594 189.001 70.3594C183.555 70.3594 179.141 74.7738 179.141 80.2194C179.141 85.6649 183.555 90.0794 189.001 90.0794Z" fill="white"/>
<path d="M179.14 24.6992L185.34 64.1592H193.24L198.88 24.6992H179.14ZM238.66 53.5592L203.14 71.8592L205.62 79.3392L244.86 72.2992L238.66 53.5592ZM229.68 119.419L201.34 91.2392L194.98 95.9192L213.76 131.079L229.68 119.419ZM164.2 131.099L182.32 95.4992L175.94 90.8792L148.22 119.519L164.2 131.099ZM132.98 72.4992L172.44 78.7392L174.86 71.2392L139.06 53.7192L132.98 72.4992ZM54.3001 50.5992C25.7401 50.5992 2.58008 73.7592 2.58008 102.319C2.58008 130.879 25.7401 154.039 54.3001 154.039C82.8601 154.039 106.02 130.879 106.02 102.319C106.02 73.7592 82.8801 50.5992 54.3001 50.5992ZM54.3001 141.799C32.5001 141.799 14.8201 124.119 14.8201 102.319C14.8201 80.5192 32.5001 62.8392 54.3001 62.8392C76.1001 62.8392 93.7801 80.5192 93.7801 102.319C93.7801 124.119 76.1001 141.799 54.3001 141.799Z" fill="#1A6CA2"/>
<path d="M54.3003 141.8C76.1045 141.8 93.7803 124.124 93.7803 102.32C93.7803 80.5156 76.1045 62.8398 54.3003 62.8398C32.4961 62.8398 14.8203 80.5156 14.8203 102.32C14.8203 124.124 32.4961 141.8 54.3003 141.8Z" fill="white"/>
<path d="M54.2995 84.4609C44.4395 84.4609 36.4395 92.4609 36.4395 102.321C36.4395 112.181 44.4395 120.181 54.2995 120.181C64.1595 120.181 72.1595 112.181 72.1595 102.321C72.1595 92.4609 64.1795 84.4609 54.2995 84.4609ZM54.2995 110.301C49.8995 110.301 46.3195 106.721 46.3195 102.321C46.3195 97.9209 49.8995 94.3409 54.2995 94.3409C58.6995 94.3409 62.2795 97.9209 62.2795 102.321C62.2795 106.721 58.7195 110.301 54.2995 110.301Z" fill="#1A6CA2"/>
<path d="M54.3003 110.3C58.7075 110.3 62.2803 106.727 62.2803 102.32C62.2803 97.9126 58.7075 94.3398 54.3003 94.3398C49.8931 94.3398 46.3203 97.9126 46.3203 102.32C46.3203 106.727 49.8931 110.3 54.3003 110.3Z" fill="white"/>
<path d="M46.3395 57.4395L51.3395 89.3395H57.7195L62.2795 57.4395H46.3395ZM94.4395 80.7595L65.7195 95.5595L67.7395 101.599L99.4395 95.9195L94.4395 80.7595ZM87.1795 133.999L64.2795 111.219L59.1395 114.999L74.3195 143.419L87.1795 133.999ZM34.2595 143.439L48.8995 114.659L43.7395 110.919L21.3395 134.079L34.2595 143.439ZM9.01953 96.0795L40.9195 101.119L42.8795 95.0595L13.9395 80.8995L9.01953 96.0795Z" fill="#1A6CA2"/>
</g>
<defs>
<clipPath id="clip0_60_67">
<rect width="256" height="256" fill="white"/>
</clipPath>
</defs>
</svg>
