<svg width="231" height="231" viewBox="0 0 231 231" fill="none" xmlns="http://www.w3.org/2000/svg">
<g clip-path="url(#clip0_60_83)">
<path d="M198.154 143.293L224.503 170.724L108.642 228.835C108.642 228.835 93.4823 236.415 86.2635 224.504C57.3885 177.582 198.154 143.293 198.154 143.293Z" fill="#256382"/>
<path d="M105.394 194.545C105.394 194.545 83.3768 202.846 87.3471 218.366C91.6784 234.609 109.364 224.863 109.364 224.863L219.45 170.723C219.45 170.723 213.314 153.398 224.503 141.848L105.394 194.545Z" fill="#D9E3E8"/>
<path d="M124.163 32.125L229.556 140.767L105.033 192.381L25.2656 60.2781L124.163 32.125Z" fill="#42ADE2"/>
<path d="M219.091 153.76L145.459 185.523L217.647 150.512L219.091 153.76ZM218.008 163.145L139.684 197.434L216.564 159.896L218.008 163.145ZM218.73 168.559L118.75 214.398L217.286 165.31L218.73 168.559Z" fill="#94989B"/>
<path d="M85.9031 224.143C73.6312 197.073 105.033 192.381 105.033 192.381L25.2656 60.2778C25.2656 60.2778 7.21875 59.9168 7.21875 79.7684C7.21875 88.07 10.8281 94.2059 10.8281 94.2059L85.9031 224.143Z" fill="#428BC1"/>
<path d="M31.4031 116.223L5.05469 143.654L120.916 201.765C120.916 201.765 136.075 209.345 143.294 197.434C172.169 150.512 31.4031 116.223 31.4031 116.223Z" fill="#547725"/>
<path d="M123.803 167.474C123.803 167.474 145.82 175.776 141.85 191.296C137.519 207.538 120.194 197.793 120.194 197.793L10.1078 143.652C10.1078 143.652 16.2438 126.327 5.05469 114.777L123.803 167.474Z" fill="#D9E3E8"/>
<path d="M105.394 5.05469L0 113.697L124.523 165.311L204.291 33.2078L105.394 5.05469Z" fill="#83BF4F"/>
<path d="M11.5492 123.441L83.7367 158.452L10.1055 126.69L11.5492 123.441ZM12.993 132.826L89.5117 170.363L11.1883 136.074L12.993 132.826ZM12.2711 138.24L110.446 187.327L10.4664 141.488L12.2711 138.24Z" fill="#94989B"/>
<path d="M143.653 197.073C155.925 170.003 124.523 165.311 124.523 165.311L204.291 33.2075C204.291 33.2075 222.338 32.8465 222.338 52.6981C222.338 60.9997 218.728 67.1356 218.728 67.1356L143.653 197.073Z" fill="#699635"/>
<path d="M204.653 93.8438L226.671 116.944L128.856 165.67C128.856 165.67 115.863 171.806 109.727 162.061C85.9049 122.719 204.653 93.8438 204.653 93.8438Z" fill="#962C2C"/>
<path d="M126.326 137.157C126.326 137.157 107.558 144.015 111.167 157.37C114.776 171.085 129.575 162.784 129.575 162.784L222.336 116.945C222.336 116.945 217.283 102.507 226.667 92.7617L126.326 137.157Z" fill="#D9E3E8"/>
<path d="M142.21 0L231.001 91.6781L125.968 135.352L58.4727 23.8219L142.21 0Z" fill="#ED4C5C"/>
<path d="M144.736 20.9336L162.061 40.0633L98.175 64.2461L83.0156 39.7023L144.736 20.9336Z" fill="white"/>
<path d="M222.338 102.866L160.257 129.214L220.895 99.6172L222.338 102.866ZM221.616 110.806L155.204 139.32L220.173 107.558L221.616 110.806ZM222.338 115.137L137.879 153.758L220.534 111.889L222.338 115.137Z" fill="#94989B"/>
<path d="M110.088 162.06C99.9813 139.321 126.33 135.351 126.33 135.351L58.4734 23.8209C58.4734 23.8209 42.9531 23.46 42.9531 40.0631C42.9531 46.9209 45.8406 52.335 45.8406 52.335L110.088 162.06Z" fill="#C94747"/>
</g>
<defs>
<clipPath id="clip0_60_83">
<rect width="231" height="231" fill="white"/>
</clipPath>
</defs>
</svg>
